<?xml version="1.0" standalone="no"?>
<!DOCTYPE svg PUBLIC "-//W3C//DTD SVG 20010904//EN"
 "http://www.w3.org/TR/2001/REC-SVG-20010904/DTD/svg10.dtd">
<svg version="1.0" xmlns="http://www.w3.org/2000/svg"
 width="500.000000pt" height="500.000000pt" viewBox="0 0 500.000000 500.000000"
 preserveAspectRatio="xMidYMid meet">
<metadata>
Created by potrace 1.11, written by Peter Selinger 2001-2013
</metadata>
<g transform="translate(0.000000,500.000000) scale(0.100000,-0.100000)"
fill="#000000" stroke="none">
<path d="M1397 4884 c-1 -2 -61 -5 -132 -9 -352 -16 -623 -51 -797 -101 -17
-5 -17 -129 -15 -2237 l2 -2232 70 -17 c72 -18 111 -25 180 -34 22 -3 51 -7
65 -10 23 -4 150 -18 265 -29 195 -19 782 -27 967 -12 592 45 1098 225 1475
524 389 308 655 799 729 1348 3 28 8 59 10 70 24 125 23 646 -1 791 -2 16 -7
45 -9 64 -9 68 -26 155 -61 305 -36 155 -142 400 -246 567 -154 250 -370 464
-632 626 -220 137 -531 254 -857 321 -52 11 -120 22 -150 26 -30 3 -62 8 -70
10 -8 2 -49 7 -90 10 -41 4 -93 9 -115 12 -39 4 -584 11 -588 7z m453 -568
c80 -3 165 -8 190 -10 511 -54 875 -228 1138 -545 29 -34 52 -65 52 -70 0 -4
8 -16 18 -27 38 -41 112 -178 158 -292 37 -93 90 -274 99 -342 4 -24 8 -47 11
-51 4 -7 9 -47 21 -154 10 -91 10 -488 -1 -585 -61 -579 -336 -1028 -776
-1267 -152 -83 -432 -169 -613 -189 -29 -3 -83 -9 -122 -13 -194 -22 -895 -15
-919 9 -7 7 -13 1089 -7 1212 1 15 16 17 144 17 78 0 231 0 340 1 l197 0 -2
527 -3 527 -332 1 c-182 0 -335 3 -339 7 -7 8 -10 1215 -3 1223 11 11 84 16
319 21 140 4 257 8 258 10 2 1 9 1 15 -1 7 -2 77 -6 157 -9z"/>
</g>
</svg>
